Coordinates
version=1
nRows=25
nColumns=33
inDegrees=yes

Units are S.I. units (second, meters, Newtons, ...)
Angles are in degrees.

endheader
time	ground_thorax_rot_x	ground_thorax_rot_y	ground_thorax_rot_z	ground_thorax_tx	ground_thorax_ty	ground_thorax_tz	clav_prot_r	clav_elev_r	scapula_abduction_r	scapula_elevation_r	scapula_upward_rot_r	scapula_winging_r	shoulder_elv_r	plane_of_elev_r	axial_rot_r	elbow_flexion_r	pro_sup_r	wrist_flex_r	wrist_dev_r	clav_prot_l	clav_elev_l	scapula_abduction_l	scapula_elevation_l	scapula_upward_rot_l	scapula_winging_l	shoulder_elv_l	plane_of_elev_l	axial_rot_l	elbow_flexion_l	pro_sup_l	wrist_flex_l	wrist_dev_l	
3.4800	38.442428	6.973226	11.993764	-166.779897	820.941462	0.833834	16.867746	39.218045	42.984643	45.000000	-42.129278	2073.605007	-2627.839625	146.221504	-127.421069	1104.426738	175.432849	10.762856	5.222087	9.947772	-45.000000	-42.450102	45.000000	-28.462773	-1703.832626	-2086.687506	23.147620	-21.969139	1807.944172	21.600843	9.347952	-22.352203	
3.4900	38.497273	6.771336	11.856651	-163.621980	820.374210	0.768132	16.898174	39.374096	43.134355	45.000000	-41.517325	2073.710769	-2627.985597	146.226502	-127.779576	1104.326139	177.289958	10.589354	5.140292	9.886334	-45.000000	-42.744014	45.000000	-27.491749	-1703.999755	-2086.872933	23.181777	-21.714746	1807.902763	21.142690	9.644021	-22.222329	
3.5000	38.555997	6.563234	11.719878	-160.356895	819.663609	0.694251	16.935334	39.531659	43.288075	45.000000	-40.904508	2073.830501	-2628.148625	146.236335	-128.174762	1104.208852	179.240778	10.409986	5.057731	9.824240	-45.000000	-43.044908	45.000000	-26.511037	-1704.170833	-2087.076746	23.219527	-21.412582	1807.850185	20.797326	9.934476	-22.089835	
3.5100	38.617081	6.349721	11.579541	-156.980203	818.813541	0.621418	16.987737	39.688060	43.450250	45.000000	-40.297759	2073.967565	-2628.328506	146.254726	-128.594951	1104.073739	181.284853	10.225557	4.981912	9.760547	-45.000000	-43.355168	45.000000	-25.506695	-1704.344259	-2087.298833	23.259178	-21.070469	1807.782758	20.561921	10.223495	-21.956883	
3.5200	38.681037	6.128696	11.428927	-153.485326	817.831660	0.559795	17.049565	39.842607	43.622230	44.999999	-39.692859	2074.118744	-2628.524872	146.277738	-129.022093	1103.923684	183.412277	10.036852	4.912483	9.696710	-45.000000	-43.671221	45.000000	-24.482604	-1704.520896	-2087.538079	23.301745	-20.693828	1807.701315	20.433757	10.507184	-21.823512	
3.5300	38.748044	5.905567	11.265698	-149.865036	816.728384	0.518696	17.110244	40.001436	43.803319	44.999999	-39.079901	2074.275620	-2628.740095	146.301576	-129.401588	1103.758408	185.581380	9.846033	4.845603	9.634020	-45.000000	-43.985815	45.000000	-23.460824	-1704.710327	-2087.791707	23.351381	-20.281257	1807.604464	20.409153	10.776694	-21.689036	
3.5400	38.818073	5.687231	11.092731	-146.113111	815.515484	0.505531	17.155363	40.166970	43.987756	44.999998	-38.451319	2074.434692	-2628.970815	146.322181	-129.694821	1103.580434	187.738923	9.655064	4.775140	9.571740	-45.000000	-44.284198	45.000000	-22.473531	-1704.925343	-2088.053533	23.411363	-19.831936	1807.493201	20.484188	11.024444	-21.553493	
3.5500	38.889749	5.478373	10.911898	-142.226647	814.204401	0.523912	17.174593	40.345833	44.171190	44.999996	-37.794574	2074.590358	-2629.218252	146.335440	-129.859272	1103.392425	189.819737	9.466190	4.694185	9.506100	-45.000000	-44.544213	45.000000	-21.546480	-1705.179207	-2088.318557	23.485071	-19.339674	1807.367802	20.653371	11.244514	-21.417640	
3.5600	38.963422	5.272195	10.721109	-138.207940	812.805373	0.573489	17.177952	40.534784	44.359685	44.999992	-37.116387	2074.749081	-2629.474028	146.344571	-129.911337	1103.197783	191.787683	9.281617	4.602886	9.428114	-45.000000	-44.746725	45.000000	-20.682740	-1705.480240	-2088.586185	23.572786	-18.798578	1807.225433	20.917940	11.443064	-21.284006	
3.5700	39.037958	5.066292	10.517229	-134.065218	811.327017	0.650088	17.171414	40.730112	44.540440	44.999986	-36.400397	2074.919771	-2629.736442	146.352416	-129.863253	1102.996870	193.623555	9.103950	4.504440	9.321380	-45.000000	-44.882742	45.000000	-19.879707	-1705.831542	-2088.853934	23.673391	-18.202629	1807.067741	21.286078	11.628528	-21.157604	
3.5800	39.109045	4.865779	10.309271	-129.812251	809.776918	0.747275	17.164608	40.924499	44.703301	44.999975	-35.665273	2075.117015	-2629.998492	146.361041	-129.748577	1102.789373	195.339029	8.934254	4.403439	9.190009	-45.000000	-44.960120	45.000000	-19.130930	-1706.227462	-2089.120400	23.784333	-17.546948	1806.890378	21.760473	11.805746	-21.041224	
3.5900	39.174612	4.680593	10.102337	-125.466531	808.162275	0.857975	17.146390	41.114734	44.830538	44.999956	-34.913194	2075.340147	-2630.262903	146.363077	-129.581950	1102.572811	196.951849	8.773280	4.295867	9.045497	-45.000000	-44.992219	45.000000	-18.444096	-1706.660437	-2089.387887	23.908440	-16.825374	1806.694080	22.339966	11.969825	-20.935332	
3.6000	39.232625	4.508393	9.899675	-121.047709	806.490968	0.976305	17.134279	41.294983	44.925500	44.999921	-34.171435	2075.606523	-2630.517060	146.370158	-129.407128	1102.347284	198.506166	8.620701	4.186916	8.890930	-45.000000	-45.000000	45.000000	-17.804049	-1707.120638	-2089.656150	24.041909	-16.028213	1806.474044	23.024328	12.126472	-20.841142	
3.6100	39.282999	4.358692	9.706733	-116.575777	804.772044	1.098205	17.113559	41.464897	44.979226	44.999859	-33.442971	2075.910962	-2630.763006	146.379999	-129.223052	1102.110603	200.033543	8.475139	4.070628	8.735752	-45.000000	-45.000000	45.000000	-17.226656	-1707.601656	-2089.923501	24.187372	-15.152184	1806.232871	23.809390	12.266818	-20.757601	
3.6200	39.324957	4.229550	9.526757	-112.070136	803.015940	1.221251	17.086505	41.626642	45.000000	44.999747	-32.750538	2076.250327	-2630.997592	146.389360	-129.033531	1101.862574	201.559559	8.334737	3.943993	8.588428	-45.000000	-45.000000	45.000000	-16.718374	-1708.099074	-2090.186281	24.346310	-14.193337	1805.969843	24.683566	12.384039	-20.682218	
3.6300	39.363387	4.104969	9.342078	-107.549196	801.234380	1.343729	17.047916	41.777112	45.000000	44.999548	-32.075148	2076.608918	-2631.231397	146.397957	-128.848858	1101.597357	203.131497	8.196482	3.807943	8.440485	-45.000000	-45.000000	45.000000	-16.259462	-1708.608837	-2090.448102	24.524141	-13.149390	1805.685141	25.641109	12.482676	-20.615096	
3.6400	39.398404	3.970425	9.148393	-103.030509	799.440516	1.463879	17.025060	41.919441	45.000000	44.999190	-31.428691	2076.990002	-2631.462463	146.414844	-128.673920	1101.310649	204.799992	8.058681	3.676043	8.288469	-45.000000	-45.000000	45.000000	-15.820784	-1709.124904	-2090.705974	24.713914	-12.017472	1805.375689	26.666622	12.571168	-20.555771	
3.6500	39.432117	3.824816	8.940278	-98.531056	797.649111	1.579458	17.004437	42.053871	45.000000	44.998549	-30.793181	2077.377235	-2631.702205	146.436176	-128.497646	1100.998703	206.619936	7.918469	3.552662	8.133933	-45.000000	-45.000000	45.000000	-15.400379	-1709.646886	-2090.957715	24.917786	-10.803878	1805.040487	27.741136	12.647431	-20.501038	
3.6600	39.462723	3.670581	8.721712	-94.067661	795.876794	1.688102	16.982500	42.184459	45.000000	44.997399	-30.170328	2077.762990	-2631.956262	146.456176	-128.311683	1100.657351	208.643561	7.776447	3.445029	7.988021	-45.000000	-45.000000	45.000000	-15.003159	-1710.172396	-2091.197313	25.134652	-9.507552	1804.679834	28.834403	12.705885	-20.445942	
3.6700	39.494246	3.500135	8.479471	-89.657743	794.142396	1.787929	16.944959	42.309382	45.000000	44.995344	-29.530841	2078.137248	-2632.227332	146.478257	-128.141346	1100.281547	210.983191	7.634793	3.362534	7.841048	-45.000000	-45.000000	45.000000	-14.627047	-1710.705930	-2091.421646	25.368230	-8.126097	1804.293311	29.931873	12.747137	-20.388091	
3.6800	39.524178	3.329045	8.233605	-85.319748	792.467066	1.878225	16.894194	42.429069	45.000000	44.991654	-28.902520	2078.502827	-2632.505184	146.502224	-128.022783	1099.866263	213.775308	7.503109	3.321019	7.708809	-45.000000	-45.000000	45.000000	-14.300059	-1711.245830	-2091.620696	25.612141	-6.671715	1803.886379	31.007644	12.766329	-20.325329	
3.6900	39.552044	3.155397	7.981027	-81.073624	790.874033	1.959768	16.824939	42.547170	45.000000	44.985065	-28.278706	2078.853979	-2632.783304	146.525491	-128.061566	1099.398761	217.350096	7.402650	3.345623	7.589657	-45.000000	-45.000000	45.000000	-14.015428	-1711.790608	-2091.790223	25.863119	-5.155858	1803.464647	32.052176	12.757808	-20.257930	
3.7000	39.575783	3.007710	7.748519	-76.940614	789.387846	2.034856	16.713648	42.647149	45.000000	44.973204	-27.697063	2079.168992	-2633.060020	146.527581	-128.385938	1098.857301	222.062155	7.365518	3.460271	7.500746	-45.000000	-45.000000	45.000000	-13.850464	-1712.340475	-2091.918249	26.126483	-3.635737	1803.052769	33.048158	12.712201	-20.187229	
3.7100	39.596648	2.829551	7.482648	-72.943435	788.033290	2.106868	16.596197	42.748639	45.000000	44.952119	-27.082859	2079.470687	-2633.300851	146.512655	-129.400848	1098.175161	229.185982	7.480989	3.773539	7.401288	-45.000000	-45.000000	45.000000	-13.668488	-1712.889584	-2092.007035	26.386065	-2.076445	1802.637089	34.035272	12.638451	-20.122005	
3.7200	39.610146	2.644258	7.211036	-69.105255	786.833904	2.179590	16.464930	42.844463	45.000000	44.913902	-26.466391	2079.747652	-2633.489035	146.462033	-131.313431	1097.309101	239.420663	7.809043	4.342666	7.319618	-45.000000	-45.000000	45.000000	-13.508349	-1713.432428	-2092.052105	26.635602	-0.522748	1802.234289	35.007300	12.524925	-20.065715	
